HIERARCHY
ROOT reference
{
  OFFSET 0 0 0
  CHANNELS 6 Xposition Yposition Zposition Zrotation Xrotation Yrotation
  JOINT Hips
  {
    OFFSET 370.543 87.5 183.721
    CHANNELS 3 Zrotation Xrotation Yrotation
    JOINT RightUpLeg
    {
      OFFSET -9.29072 -1.53718 -0.00769521
      CHANNELS 3 Zrotation Xrotation Yrotation
      JOINT RightLeg
      {
        OFFSET 0.000649198 -41.8926 0.0287464
        CHANNELS 3 Zrotation Xrotation Yrotation
        JOINT RightFoot
        {
          OFFSET -0.131981 -42.8927 0.241786
          CHANNELS 3 Zrotation Xrotation Yrotation
          End Site
          {
            OFFSET 0 -7.69 17.5
          }
        }
      }
    }
    JOINT LeftUpLeg
    {
      OFFSET 9.29816 -1.6623 -0.0330144
      CHANNELS 3 Zrotation Xrotation Yrotation
      JOINT LeftLeg
      {
        OFFSET 0.0555409 -41.8801 -0.0492089
        CHANNELS 3 Zrotation Xrotation Yrotation
        JOINT LeftFoot
        {
          OFFSET 0.737583 -41.1094 -0.206555
          CHANNELS 3 Zrotation Xrotation Yrotation
          End Site
          {
            OFFSET 0 -7.69 17.5
          }
        }
      }
    }
    JOINT Spine
    {
      OFFSET 0.0742767 14.2946 0.0485675
      CHANNELS 3 Zrotation Xrotation Yrotation
      JOINT Spine1
      {
        OFFSET 0.0332084 9.70841 0.0159593
        CHANNELS 3 Zrotation Xrotation Yrotation
        JOINT Spine2
        {
          OFFSET 0.0388468 10.1231 0.00288192
          CHANNELS 3 Zrotation Xrotation Yrotation
          JOINT Spine3
          {
            OFFSET 0.0300771 9.71993 0.00776905
            CHANNELS 3 Zrotation Xrotation Yrotation
            JOINT Neck
            {
              OFFSET 0.058413 10.382 0.0516165
              CHANNELS 3 Zrotation Xrotation Yrotation
              JOINT Head
              {
                OFFSET 0.0298281 9.47849 0.0268718
                CHANNELS 3 Zrotation Xrotation Yrotation
                End Site
                {
                  OFFSET 0 15.95 0
                }
              }
            }
            JOINT RightShoulder
            {
              OFFSET -3.15612 6.91385 0.0353801
              CHANNELS 3 Zrotation Xrotation Yrotation
              JOINT RightArm
              {
                OFFSET -12.7781 -0.0057607 0.0332486
                CHANNELS 3 Zrotation Xrotation Yrotation
                JOINT RightForeArm
                {
                  OFFSET -26.4999 -0.0425897 0.0409183
                  CHANNELS 3 Zrotation Xrotation Yrotation
                  JOINT RightHand
                  {
                    OFFSET -25.993 -0.0294641 0.00108206
                    CHANNELS 3 Zrotation Xrotation Yrotation
                    JOINT RightHandThumb1
                    {
                      OFFSET -2.48905 0.190105 3.12053
                      CHANNELS 3 Zrotation Xrotation Yrotation
                      JOINT RightHandThumb2
                      {
                        OFFSET -3.68274 0 0
                        CHANNELS 3 Zrotation Xrotation Yrotation
                        JOINT RightHandThumb3
                        {
                          OFFSET -2.55832 0 0
                          CHANNELS 3 Zrotation Xrotation Yrotation
                          End Site
                          {
                            OFFSET -2.194 0 0
                          }
                        }
                      }
                    }
                    JOINT RightInHandIndex
                    {
                      OFFSET -3.22368 0.508421 1.97842
                      CHANNELS 3 Zrotation Xrotation Yrotation
                      JOINT RightHandIndex1
                      {
                        OFFSET -5.21684 -0.091368 0.999158
                        CHANNELS 3 Zrotation Xrotation Yrotation
                        JOINT RightHandIndex2
                        {
                          OFFSET -3.61937 0 0
                          CHANNELS 3 Zrotation Xrotation Yrotation
                          JOINT RightHandIndex3
                          {
                            OFFSET -2.0521 0 0
                            CHANNELS 3 Zrotation Xrotation Yrotation
                            End Site
                            {
                              OFFSET -1.805 0 0
                            }
                          }
                        }
                      }
                    }
                    JOINT RightInHandMiddle
                    {
                      OFFSET -3.38211 0.517263 0.756737
                      CHANNELS 3 Zrotation Xrotation Yrotation
                      JOINT RightHandMiddle1
                      {
                        OFFSET -5.17411 -0.084 0.313895
                        CHANNELS 3 Zrotation Xrotation Yrotation
                        JOINT RightHandMiddle2
                        {
                          OFFSET -3.94947 0 0
                          CHANNELS 3 Zrotation Xrotation Yrotation
                          JOINT RightHandMiddle3
                          {
                            OFFSET -2.47579 0 0
                            CHANNELS 3 Zrotation Xrotation Yrotation
                            End Site
                            {
                              OFFSET -1.975 0 0
                            }
                          }
                        }
                      }
                    }
                    JOINT RightInHandRing
                    {
                      OFFSET -3.36516 0.537895 -0.128947
                      CHANNELS 3 Zrotation Xrotation Yrotation
                      JOINT RightHandRing1
                      {
                        OFFSET -4.63474 -0.022105 -0.478947
                        CHANNELS 3 Zrotation Xrotation Yrotation
                        JOINT RightHandRing2
                        {
                          OFFSET -3.44238 0 0
                          CHANNELS 3 Zrotation Xrotation Yrotation
                          JOINT RightHandRing3
                          {
                            OFFSET -2.3881 0 0
                            CHANNELS 3 Zrotation Xrotation Yrotation
                            End Site
                            {
                              OFFSET -1.857 0 0
                            }
                          }
                        }
                      }
                    }
                    JOINT RightInHandPinky
                    {
                      OFFSET -3.16105 0.469368 -1.20179
                      CHANNELS 3 Zrotation Xrotation Yrotation
                      JOINT RightHandPinky1
                      {
                        OFFSET -4.14105 -0.022105 -1.09053
                        CHANNELS 3 Zrotation Xrotation Yrotation
                        JOINT RightHandPinky2
                        {
                          OFFSET -2.75653 0 0
                          CHANNELS 3 Zrotation Xrotation Yrotation
                          JOINT RightHandPinky3
                          {
                            OFFSET -1.74189 0 0
                            CHANNELS 3 Zrotation Xrotation Yrotation
                            End Site
                            {
                              OFFSET -1.645 0 0
                            }
                          }
                        }
                      }
                    }
                  }
                }
              }
            }
            JOINT LeftShoulder
            {
              OFFSET 3.24463 6.9123 -0.0189685
              CHANNELS 3 Zrotation Xrotation Yrotation
              JOINT LeftArm
              {
                OFFSET 12.8793 -0.0485389 -0.0634723
                CHANNELS 3 Zrotation Xrotation Yrotation
                JOINT LeftForeArm
                {
                  OFFSET 26.4894 0.00252616 -0.136149
                  CHANNELS 3 Zrotation Xrotation Yrotation
                  JOINT LeftHand
                  {
                    OFFSET 26.005 0.0292639 -0.0166184
                    CHANNELS 3 Zrotation Xrotation Yrotation
                    JOINT LeftHandThumb1
                    {
                      OFFSET 2.48905 0.190105 3.12053
                      CHANNELS 3 Zrotation Xrotation Yrotation
                      JOINT LeftHandThumb2
                      {
                        OFFSET 3.68274 0 0
                        CHANNELS 3 Zrotation Xrotation Yrotation
                        JOINT LeftHandThumb3
                        {
                          OFFSET 2.55832 0 0
                          CHANNELS 3 Zrotation Xrotation Yrotation
                          End Site
                          {
                            OFFSET 2.194 0 0
                          }
                        }
                      }
                    }
                    JOINT LeftInHandIndex
                    {
                      OFFSET 3.22368 0.508421 1.97842
                      CHANNELS 3 Zrotation Xrotation Yrotation
                      JOINT LeftHandIndex1
                      {
                        OFFSET 5.21684 -0.091368 0.999158
                        CHANNELS 3 Zrotation Xrotation Yrotation
                        JOINT LeftHandIndex2
                        {
                          OFFSET 3.61937 0 0
                          CHANNELS 3 Zrotation Xrotation Yrotation
                          JOINT LeftHandIndex3
                          {
                            OFFSET 2.0521 0 0
                            CHANNELS 3 Zrotation Xrotation Yrotation
                            End Site
                            {
                              OFFSET 1.805 0 0
                            }
                          }
                        }
                      }
                    }
                    JOINT LeftInHandMiddle
                    {
                      OFFSET 3.38211 0.517263 0.756737
                      CHANNELS 3 Zrotation Xrotation Yrotation
                      JOINT LeftHandMiddle1
                      {
                        OFFSET 5.17411 -0.084 0.313895
                        CHANNELS 3 Zrotation Xrotation Yrotation
                        JOINT LeftHandMiddle2
                        {
                          OFFSET 3.94947 0 0
                          CHANNELS 3 Zrotation Xrotation Yrotation
                          JOINT LeftHandMiddle3
                          {
                            OFFSET 2.47579 0 0
                            CHANNELS 3 Zrotation Xrotation Yrotation
                            End Site
                            {
                              OFFSET 1.975 0 0
                            }
                          }
                        }
                      }
                    }
                    JOINT LeftInHandRing
                    {
                      OFFSET 3.36516 0.537895 -0.128947
                      CHANNELS 3 Zrotation Xrotation Yrotation
                      JOINT LeftHandRing1
                      {
                        OFFSET 4.63474 -0.022105 -0.478947
                        CHANNELS 3 Zrotation Xrotation Yrotation
                        JOINT LeftHandRing2
                        {
                          OFFSET 3.44238 0 0
                          CHANNELS 3 Zrotation Xrotation Yrotation
                          JOINT LeftHandRing3
                          {
                            OFFSET 2.3881 0 0
                            CHANNELS 3 Zrotation Xrotation Yrotation
                            End Site
                            {
                              OFFSET 1.857 0 0
                            }
                          }
                        }
                      }
                    }
                    JOINT LeftInHandPinky
                    {
                      OFFSET 3.16105 0.469368 -1.20179
                      CHANNELS 3 Zrotation Xrotation Yrotation
                      JOINT LeftHandPinky1
                      {
                        OFFSET 4.14105 -0.022105 -1.09053
                        CHANNELS 3 Zrotation Xrotation Yrotation
                        JOINT LeftHandPinky2
                        {
                          OFFSET 2.75653 0 0
                          CHANNELS 3 Zrotation Xrotation Yrotation
                          JOINT LeftHandPinky3
                          {
                            OFFSET 1.74189 0 0
                            CHANNELS 3 Zrotation Xrotation Yrotation
                            End Site
                            {
                              OFFSET 1.645 0 0
                            }
                          }
                        }
                      }
                    }
                  }
                }
              }
            }
          }
        }
      }
    }
  }
}
MOTION
Frames: 2
Frame Time: 0.00833333
3.000000000000000000e+02 0.000000000000000000e+00 0.000000000000000000e+00 0.000000000000000000e+00 0.000000000000000000e+00 0.000000000000000000e+00 1.218415369523850574e-03 -7.132421120893912836e-03 -2.184896439063969617e-03 -1.362289417053723709e-02 -2.324297675375419300e-02 -4.134425526608387271e-04 2.685912917965536939e-02 1.606948739090701891e-02 2.196725503437444143e-03 -1.252776652033611195e-02 -1.046907658385574057e-02 -8.456786428619749926e-03 -2.263183803933924848e-02 -1.980228603460195205e-02 -3.232159457193557045e-02 -5.788635996666049478e-03 -5.694864108442169309e-03 4.335444147985524632e-02 1.177503943310453417e-02 2.168169348060404802e-02 3.975129802513788918e-03 -2.153190197822148558e-03 -5.519597124383396163e-03 -1.762299441489158973e-03 -7.653427999056913993e-04 -1.087333136163952732e-03 -2.981109623954235300e-04 -2.663055932479224588e-03 -1.817455442642927242e-03 -1.369706712911387958e-03 2.188170470990099701e-04 9.787677771138847600e-05 -1.134934660231423637e-04 7.655683367704166744e-04 -4.977284110105136168e-03 2.212606070783162959e-03 -6.132818471086138798e-03 1.772625171321197141e-03 4.562882725600530057e-03 -1.732595632651959261e-02 -1.225547855960423815e-02 -3.030273631792215761e-02 6.501909652897777669e-03 2.400388243919864342e-02 -2.670815664397047443e-02 5.322579714079060664e-03 2.149800824850309211e-02 2.678348644526283920e-02 3.731228097749825657e-03 3.663971035223802242e-02 2.750390274697749049e-02 0.000000000000000000e+00 0.000000000000000000e+00 0.000000000000000000e+00 -1.263686894306248304e-15 2.079923046274231565e-15 0.000000000000000000e+00 -1.800610459448353712e-15 2.574378899081860999e-15 0.000000000000000000e+00 -4.656988252480179758e-15 3.068740175678445438e-15 9.127502890733853814e-17 0.000000000000000000e+00 0.000000000000000000e+00 0.000000000000000000e+00 0.000000000000000000e+00 -6.237264815379093052e-16 1.308385843825437492e-15 0.000000000000000000e+00 4.704535314792118562e-16 -1.867069241385886836e-16 -4.656988252480179758e-15 3.068740175678445438e-15 9.127502890733853814e-17 0.000000000000000000e+00 2.324302737525449759e-16 7.010587858535488982e-16 0.000000000000000000e+00 1.214950191250275427e-15 5.754290532847618236e-16 0.000000000000000000e+00 1.481437390695625775e-15 2.059076507518647154e-17 -4.656988252480179758e-15 3.068740175678445438e-15 9.127502890733853814e-17 0.000000000000000000e+00 0.000000000000000000e+00 0.000000000000000000e+00 0.000000000000000000e+00 -2.779465224721208127e-15 7.305974484707452563e-16 0.000000000000000000e+00 -5.554185704021478017e-16 2.123964269521794417e-15 -4.656988252480179758e-15 3.068740175678445438e-15 9.127502890733853814e-17 0.000000000000000000e+00 0.000000000000000000e+00 0.000000000000000000e+00 0.000000000000000000e+00 5.398145720377370297e-16 9.085203601337456015e-16 0.000000000000000000e+00 1.011222077533445841e-15 9.797126046755592816e-16 -4.121583143813642436e-02 -1.544326505124080443e-02 -7.648407862100388421e-02 -2.307206881932548359e-02 1.716452840984593851e-03 9.876535748275236393e-02 9.738420259120424138e-04 -1.480674041184969723e-02 -1.627672230463486983e-02 1.019338450811548696e-02 1.497323345767375379e-02 -3.584176625675184608e-02 0.000000000000000000e+00 0.000000000000000000e+00 0.000000000000000000e+00 -8.623593549080441531e-16 2.274057200530060717e-15 0.000000000000000000e+00 3.844011117345186555e-16 1.608259559543864755e-15 0.000000000000000000e+00 3.526121448987207841e-15 2.033685911690719149e-16 -8.684249257615232208e-17 0.000000000000000000e+00 0.000000000000000000e+00 0.000000000000000000e+00 0.000000000000000000e+00 -3.247657879609125006e-17 -7.406407168931488396e-16 0.000000000000000000e+00 5.364346273945775918e-16 -3.701413571519299045e-16 3.526121448987207841e-15 2.033685911690719149e-16 -8.684249257615232208e-17 0.000000000000000000e+00 -8.093131421101526879e-17 -1.331339054272076408e-16 0.000000000000000000e+00 1.487135253907032435e-16 3.313177806620817706e-16 0.000000000000000000e+00 -1.217644289027458521e-16 -3.590526484254199789e-16 3.526121448987207841e-15 2.033685911690719149e-16 -8.684249257615232208e-17 0.000000000000000000e+00 0.000000000000000000e+00 0.000000000000000000e+00 0.000000000000000000e+00 8.204590025424919989e-16 -1.206425213724955181e-16 0.000000000000000000e+00 4.080856321527062675e-17 -2.196326844554839935e-16 3.526121448987207841e-15 2.033685911690719149e-16 -8.684249257615232208e-17 0.000000000000000000e+00 0.000000000000000000e+00 0.000000000000000000e+00 0.000000000000000000e+00 5.201692923299511306e-16 -6.066319023768963932e-16 0.000000000000000000e+00 -8.565481751268943589e-17 -4.128286646075551977e-16
3.000000000000000000e+02 0.000000000000000000e+00 0.000000000000000000e+00 0.000000000000000000e+00 0.000000000000000000e+00 0.000000000000000000e+00 3.618358464949257168e-04 -5.374091432737867352e-03 1.209123104198966828e-03 3.894076513158913587e-03 4.761989502338638026e-03 1.929719621091265103e-02 1.447066159275911144e-03 -3.298544219775776613e-03 -1.506892111072393597e-02 9.150868179384128581e-03 -6.041089744396373890e-04 -5.047556811288878009e-03 -1.882002285476152420e-02 -2.105141659440110460e-02 -1.836744065524940905e-02 4.068819049334590661e-03 2.723481618021416414e-03 2.668697174326104676e-02 -6.496159196014417853e-03 -4.385802632892269251e-03 -3.056739491665436386e-03 -2.248644208659380736e-03 -3.903105229668937977e-03 -2.348364812576909759e-03 -6.284626372295491715e-04 -9.949322438606350485e-04 -5.876643989172914556e-04 -1.772184956046997210e-03 -1.555459242974011058e-03 -2.603500542499890408e-03 -3.754177930636896709e-05 -2.534651708884870904e-04 -2.528162281720667645e-05 5.573197608189681780e-04 4.232641751601744153e-04 6.807065798761948242e-03 6.527875411176317644e-04 4.037484218515543372e-04 1.163709722119760440e-03 -3.033522925759571734e-03 -1.433050263574168516e-03 3.285565268361491376e-02 5.091078050687258827e-02 1.347168628956257538e-02 4.060830917682619473e-02 -6.992624260588131690e-02 -2.285041711122081862e-02 1.375339544891014155e-02 1.121328227331263097e-02 1.202912549563895928e-01 4.453298650910265943e-02 0.000000000000000000e+00 0.000000000000000000e+00 0.000000000000000000e+00 2.928120446243721119e-15 1.925151043416686688e-15 0.000000000000000000e+00 -2.128185110516613636e-15 1.573087719755494046e-15 0.000000000000000000e+00 -5.907529428451654458e-16 9.675702768872173963e-16 2.532508921630836805e-16 0.000000000000000000e+00 0.000000000000000000e+00 0.000000000000000000e+00 0.000000000000000000e+00 -1.120780404450607257e-16 1.284017820261387192e-15 0.000000000000000000e+00 -2.248205323021684027e-16 -2.794966226964356074e-16 -5.907529428451654458e-16 9.675702768872173963e-16 2.532508921630836805e-16 0.000000000000000000e+00 -2.619961586483962131e-16 -3.047300566917206062e-16 0.000000000000000000e+00 3.627968382757028295e-16 5.103850833079844658e-16 0.000000000000000000e+00 6.915305034690493832e-16 3.137179709348905647e-16 -5.907529428451654458e-16 9.675702768872173963e-16 2.532508921630836805e-16 0.000000000000000000e+00 0.000000000000000000e+00 0.000000000000000000e+00 0.000000000000000000e+00 -1.376815105189749989e-16 2.849887798905300138e-16 0.000000000000000000e+00 4.072315733167878391e-16 4.546436817998020863e-16 -5.907529428451654458e-16 9.675702768872173963e-16 2.532508921630836805e-16 0.000000000000000000e+00 0.000000000000000000e+00 0.000000000000000000e+00 0.000000000000000000e+00 4.071945467336294065e-16 2.357598383006332626e-16 0.000000000000000000e+00 1.591022030893160343e-16 -4.967896491495943328e-16 -2.750729672540849075e-02 -1.214458738607332618e-02 -6.120115152465646635e-02 -2.827350445986212893e-02 -9.088527934575655470e-03 8.344764153184008881e-02 -1.085642531778518646e-02 -6.644487063339050287e-03 -1.596638205288067672e-02 8.414589201502693534e-04 8.421002690955092101e-03 -2.148506339514451302e-02 0.000000000000000000e+00 0.000000000000000000e+00 0.000000000000000000e+00 1.410581297935416411e-15 -7.924254766224479227e-16 0.000000000000000000e+00 3.776039601686089993e-16 2.204026594074215732e-16 0.000000000000000000e+00 9.396193157768459589e-16 8.178167366831033631e-17 -1.545174123950004114e-16 0.000000000000000000e+00 0.000000000000000000e+00 0.000000000000000000e+00 0.000000000000000000e+00 -3.037727909946476174e-17 4.611788445742273567e-16 0.000000000000000000e+00 1.798064376493322149e-16 1.156922736984248383e-16 9.396193157768459589e-16 8.178167366831033631e-17 -1.545174123950004114e-16 0.000000000000000000e+00 -6.541090681977539425e-17 8.144730796361268014e-17 0.000000000000000000e+00 1.589044262042335952e-17 4.820408069848523245e-16 0.000000000000000000e+00 -5.106081128117474738e-17 5.023994580857579174e-17 9.396193157768459589e-16 8.178167366831033631e-17 -1.545174123950004114e-16 0.000000000000000000e+00 0.000000000000000000e+00 0.000000000000000000e+00 0.000000000000000000e+00 3.848204889758077069e-16 -1.446502316421156896e-16 0.000000000000000000e+00 1.169522685697611767e-16 -8.663594365051541198e-17 9.396193157768459589e-16 8.178167366831033631e-17 -1.545174123950004114e-16 0.000000000000000000e+00 0.000000000000000000e+00 0.000000000000000000e+00 0.000000000000000000e+00 8.521095515078469401e-17 -3.003682680903604313e-16 0.000000000000000000e+00 9.342659914289347806e-16 -5.640423666455042734e-17
